<svg width="1240" height="730" viewBox="0 0 1240 730" fill="none" xmlns="http://www.w3.org/2000/svg">
<g opacity="0.5">
<path d="M231.966 80.0658C231.966 80.0658 3.48411 207.971 8.38372 216.078C13.2833 224.284 231.966 80.0658 231.966 80.0658Z" fill="#E1E4E5"/>
<path d="M690.843 37.0305C690.843 37.0305 503.058 140.115 508.058 148.222C512.957 156.429 690.843 37.0305 690.843 37.0305Z" fill="#E1E4E5"/>
<path d="M231.566 490.403C231.566 490.403 21.3827 607.099 26.2823 615.306C31.2819 623.412 231.566 490.403 231.566 490.403Z" fill="#E1E4E5"/>
<path d="M483.346 241.198C483.346 241.198 273.163 357.894 278.062 366.101C283.062 374.208 483.346 241.198 483.346 241.198Z" fill="#E1E4E5"/>
<path d="M722.327 338.278C722.327 338.278 512.144 454.974 517.043 463.181C522.043 471.287 722.327 338.278 722.327 338.278Z" fill="#E1E4E5"/>
<path d="M900.929 571.47C900.929 571.47 783.242 636.738 785.985 641.328C788.784 645.862 900.929 571.47 900.929 571.47Z" fill="#E1E4E5"/>
<path d="M1189.02 570.469C1189.02 570.469 1039.34 650.335 1044.24 658.541C1049.23 666.748 1189.02 570.469 1189.02 570.469Z" fill="#E1E4E5"/>
<path d="M623.068 590.485C623.068 590.485 473.38 670.351 478.28 678.558C483.279 686.764 623.068 590.485 623.068 590.485Z" fill="#E1E4E5"/>
<path d="M1240 351.289C1240 351.289 1052.21 454.373 1057.21 462.48C1062.21 470.687 1240 351.289 1240 351.289Z" fill="#E1E4E5"/>
</g>
<path d="M983.922 316.26C983.922 316.26 866.235 381.528 868.978 386.118C871.778 390.652 983.922 316.26 983.922 316.26Z" fill="#E1E4E5"/>
<path d="M1164.91 87.0715C1164.91 87.0715 1047.22 152.34 1049.96 156.93C1052.76 161.464 1164.91 87.0715 1164.91 87.0715Z" fill="#E1E4E5"/>
<path d="M880.93 178.146C880.93 178.146 783.711 232.226 785.977 236.029C788.289 239.786 880.93 178.146 880.93 178.146Z" fill="#E1E4E5"/>
<path d="M22.3989 272.324C22.3989 274.626 20.5989 276.427 18.2989 276.427C15.9989 276.427 14.1989 274.626 14.1989 272.324C14.1989 270.022 15.9989 268.22 18.2989 268.22C20.5989 268.22 22.3989 270.022 22.3989 272.324Z" fill="#D5D1D1"/>
<path d="M222.483 666.248C222.483 668.449 220.683 670.251 218.483 670.251C216.283 670.251 214.483 668.449 214.483 666.248C214.483 664.046 216.283 662.244 218.483 662.244C220.683 662.144 222.483 663.946 222.483 666.248Z" fill="#D5D1D1"/>
<path d="M135.19 47.1388C135.19 50.4415 132.49 53.2438 129.09 53.2438C125.79 53.2438 122.99 50.5416 122.99 47.1388C122.99 43.8361 125.69 41.0338 129.09 41.0338C132.49 41.0338 135.19 43.736 135.19 47.1388Z" fill="#D5D1D1"/>
<path d="M404.369 705.18C404.369 707.682 402.269 709.783 399.769 709.783C397.269 709.783 395.169 707.682 395.169 705.18C395.169 702.678 397.269 700.576 399.769 700.576C402.269 700.576 404.369 702.678 404.369 705.18Z" fill="#D5D1D1"/>
<path d="M161.588 244.901C161.588 246.903 159.888 248.604 157.888 248.604C155.888 248.604 154.188 247.003 154.188 244.901C154.188 242.9 155.888 241.198 157.888 241.198C159.888 241.198 161.588 242.8 161.588 244.901Z" fill="#D5D1D1"/>
<path d="M1197.51 618.208C1197.51 620.21 1195.81 621.911 1193.81 621.911C1191.81 621.911 1190.11 620.21 1190.11 618.208C1190.11 616.206 1191.81 614.505 1193.81 614.505C1195.91 614.505 1197.51 616.206 1197.51 618.208Z" fill="#D5D1D1"/>
<path d="M380.57 109.79C380.57 111.792 378.87 113.493 376.87 113.493C374.87 113.493 373.17 111.792 373.17 109.79C373.17 107.789 374.77 106.087 376.87 106.087C378.97 106.087 380.57 107.689 380.57 109.79Z" fill="#D5D1D1"/>
<path d="M358.772 570.269C358.772 572.37 357.072 574.072 354.972 574.072C352.872 574.072 351.172 572.37 351.172 570.269C351.172 568.167 352.872 566.466 354.972 566.466C357.072 566.466 358.772 568.167 358.772 570.269Z" fill="#D5D1D1"/>
<path d="M529.559 320.063C529.559 322.165 527.859 323.866 525.759 323.866C523.659 323.866 521.959 322.165 521.959 320.063C521.959 317.961 523.659 316.26 525.759 316.26C527.859 316.26 529.559 317.961 529.559 320.063Z" fill="#D5D1D1"/>
<path d="M507.76 76.8632C507.76 78.4645 506.46 79.6655 504.96 79.6655C503.46 79.6655 502.16 78.3644 502.16 76.8632C502.16 75.3619 503.46 74.0609 504.96 74.0609C506.46 74.0609 507.76 75.2618 507.76 76.8632Z" fill="#D5D1D1"/>
<path d="M927.127 718.591C927.127 720.792 925.327 722.594 923.127 722.594C920.927 722.594 919.127 720.792 919.127 718.591C919.127 716.389 920.927 714.587 923.127 714.587C925.327 714.587 927.127 716.389 927.127 718.591Z" fill="#D5D1D1"/>
<path d="M1084.31 690.167C1084.31 692.169 1082.71 693.77 1080.71 693.77C1078.71 693.77 1077.11 692.169 1077.11 690.167C1077.11 688.166 1078.71 686.564 1080.71 686.564C1082.71 686.564 1084.31 688.166 1084.31 690.167Z" fill="#D5D1D1"/>
<path d="M1160.21 452.472C1160.21 454.674 1158.41 456.475 1156.11 456.475C1153.91 456.475 1152.11 454.674 1152.11 452.472C1152.11 450.27 1153.91 448.368 1156.11 448.368C1158.41 448.469 1160.21 450.27 1160.21 452.472Z" fill="#D5D1D1"/>
<path d="M908.329 56.7466C908.329 58.7483 906.629 60.4497 904.629 60.4497C902.629 60.4497 900.929 58.7483 900.929 56.7466C900.929 54.745 902.629 53.0436 904.629 53.0436C906.629 53.0436 908.329 54.745 908.329 56.7466Z" fill="#D5D1D1"/>
<path d="M164.588 575.173C164.588 577.174 162.988 578.876 160.888 578.876C158.888 578.876 157.188 577.174 157.188 575.173C157.188 573.171 158.788 571.47 160.888 571.47C162.988 571.47 164.588 573.171 164.588 575.173Z" fill="#D5D1D1"/>
<path d="M595.553 726.297C595.553 728.299 593.953 730 591.853 730C589.853 730 588.153 728.299 588.153 726.297C588.153 724.295 589.853 722.594 591.853 722.594C593.953 722.594 595.553 724.195 595.553 726.297Z" fill="#D5D1D1"/>
<path d="M750.341 503.114C750.341 505.115 748.741 506.817 746.641 506.817C744.641 506.817 742.941 505.115 742.941 503.114C742.941 501.112 744.641 499.41 746.641 499.41C748.741 499.41 750.341 501.012 750.341 503.114Z" fill="#D5D1D1"/>
<path d="M7.4 554.356C7.4 556.357 5.8 558.059 3.7 558.059C1.7 558.059 0 556.357 0 554.356C0 552.354 1.7 550.653 3.7 550.653C5.7 550.653 7.4 552.254 7.4 554.356Z" fill="#D5D1D1"/>
<path d="M1144.01 717.39L1141.61 712.886L1137.11 710.484L1141.71 708.082L1144.01 703.578L1146.21 708.082L1150.91 710.484L1146.31 712.786L1144.01 717.39Z" fill="#D5D1D1"/>
<path d="M255.08 155.127L252.58 150.524L247.98 148.122L252.68 145.62L255.08 141.116L257.28 145.72L262.079 148.122L257.38 150.524L255.08 155.127Z" fill="#D5D1D1"/>
<path d="M701.044 207.17L698.545 202.566L693.945 200.165L698.645 197.662L701.044 193.159L703.244 197.763L708.044 200.165L703.344 202.566L701.044 207.17Z" fill="#D5D1D1"/>
<path d="M54.3957 140.616L51.8959 135.912L47.1963 133.41L51.9959 130.808L54.3957 126.104L56.7955 130.908L61.6951 133.41L56.7955 135.812L54.3957 140.616Z" fill="#D5D1D1"/>
<path d="M82.5935 687.865L79.1937 682.461L72.9942 678.157L79.2937 674.855L82.5935 668.549L85.6932 674.855L92.1927 678.157L85.7932 681.46L82.5935 687.865Z" fill="#D5D1D1"/>
<path d="M785.938 36.6301L783.538 32.2265L779.138 29.8245L783.638 27.4225L785.938 23.0189L788.138 27.5226L792.737 29.8245L788.238 32.1264L785.938 36.6301Z" fill="#D5D1D1"/>
<path d="M1140.71 283.533L1137.31 277.228L1131.11 273.925L1137.51 270.522L1140.71 264.217L1143.91 270.622L1150.41 273.925L1143.91 277.228L1140.71 283.533Z" fill="#D5D1D1"/>
<path d="M1085.91 560.06L1084.21 556.858L1081.11 555.256L1084.31 553.555L1085.91 550.452L1087.51 553.555L1090.81 555.256L1087.51 556.858L1085.91 560.06Z" fill="#D5D1D1"/>
<path d="M918.728 472.989L917.028 469.786L913.928 468.185L917.128 466.483L918.728 463.381L920.328 466.483L923.628 468.185L920.328 469.786L918.728 472.989Z" fill="#D5D1D1"/>
<path d="M279.738 642.663H279.918C280.98 657.704 292.177 657.935 292.177 657.935C292.177 657.935 279.83 658.176 279.83 675.555C279.83 658.176 267.484 657.935 267.484 657.935C267.484 657.935 278.676 657.704 279.738 642.663ZM35.5043 430.354H35.699C36.8533 446.949 49.0106 447.204 49.0106 447.204C49.0106 447.204 35.6044 447.47 35.6044 466.645C35.6044 447.47 22.1982 447.204 22.1982 447.204C22.1982 447.204 34.3506 446.949 35.5043 430.354Z" fill="#E1E4E5"/>
<path d="M1030.62 37.3306L1028.22 33.0271L1023.92 30.7252L1028.32 28.3232L1030.62 24.0197L1032.72 28.4233L1037.22 30.7252L1032.82 32.927L1030.62 37.3306Z" fill="#D5D1D1"/>
<path d="M485.562 237.395L482.162 231.09L475.962 227.787L482.262 224.384L485.562 218.179L488.661 224.485L495.161 227.787L488.761 231.09L485.562 237.395Z" fill="#D5D1D1"/>
</svg>
