<svg width="1240" height="730" viewBox="0 0 1240 730" fill="none" xmlns="http://www.w3.org/2000/svg">
<g opacity="0.5">
<path d="M231.966 80.0658C231.966 80.0658 3.48411 207.971 8.38372 216.078C13.2833 224.284 231.966 80.0658 231.966 80.0658Z" fill="#E1E4E5"/>
<path d="M690.843 37.0305C690.843 37.0305 503.058 140.115 508.058 148.222C512.957 156.429 690.843 37.0305 690.843 37.0305Z" fill="#E1E4E5"/>
<path d="M231.566 490.403C231.566 490.403 21.3827 607.099 26.2823 615.306C31.2819 623.412 231.566 490.403 231.566 490.403Z" fill="#E1E4E5"/>
<path d="M483.346 241.198C483.346 241.198 273.163 357.894 278.062 366.101C283.062 374.208 483.346 241.198 483.346 241.198Z" fill="#E1E4E5"/>
<path d="M722.327 338.278C722.327 338.278 512.144 454.974 517.043 463.181C522.043 471.287 722.327 338.278 722.327 338.278Z" fill="#E1E4E5"/>
<path d="M900.929 571.47C900.929 571.47 783.242 636.738 785.985 641.328C788.784 645.862 900.929 571.47 900.929 571.47Z" fill="#E1E4E5"/>
<path d="M1164.91 566C1164.91 566 1015.22 645.866 1020.12 654.072C1025.12 662.279 1164.91 566 1164.91 566Z" fill="#E1E4E5"/>
<path d="M623.068 590.485C623.068 590.485 473.38 670.351 478.28 678.558C483.279 686.764 623.068 590.485 623.068 590.485Z" fill="#E1E4E5"/>
<path d="M1240 351.289C1240 351.289 1052.21 454.373 1057.21 462.48C1062.21 470.687 1240 351.289 1240 351.289Z" fill="#E1E4E5"/>
</g>
<path d="M1040.99 304C1040.99 304 923.304 369.268 926.047 373.858C928.847 378.393 1040.99 304 1040.99 304Z" fill="#E1E4E5"/>
<path d="M1164.91 87.0715C1164.91 87.0715 1047.22 152.34 1049.96 156.93C1052.76 161.464 1164.91 87.0715 1164.91 87.0715Z" fill="#E1E4E5"/>
<path d="M880.93 178.146C880.93 178.146 783.711 232.226 785.977 236.029C788.289 239.786 880.93 178.146 880.93 178.146Z" fill="#E1E4E5"/>
<path d="M47.2 285.103C47.2 287.405 45.4 289.207 43.1 289.207C40.8 289.207 39 287.405 39 285.103C39 282.801 40.8 281 43.1 281C45.4 281 47.2 282.801 47.2 285.103Z" fill="#D5D1D1"/>
<path d="M184 631.007C184 633.209 182.2 635.011 180 635.011C177.8 635.011 176 633.209 176 631.007C176 628.805 177.8 627.004 180 627.004C182.2 626.904 184 628.705 184 631.007Z" fill="#D5D1D1"/>
<path d="M93.2 33.1051C93.2 36.4078 90.5 39.21 87.1 39.21C83.8 39.21 81 36.5079 81 33.1051C81 29.8023 83.7 27 87.1 27C90.5 27 93.2 29.7023 93.2 33.1051Z" fill="#D5D1D1"/>
<path d="M404.369 705.18C404.369 707.682 402.269 709.783 399.769 709.783C397.269 709.783 395.169 707.682 395.169 705.18C395.169 702.678 397.269 700.576 399.769 700.576C402.269 700.576 404.369 702.678 404.369 705.18Z" fill="#D5D1D1"/>
<path d="M161.588 244.901C161.588 246.903 159.888 248.604 157.888 248.604C155.888 248.604 154.188 247.003 154.188 244.901C154.188 242.9 155.888 241.198 157.888 241.198C159.888 241.198 161.588 242.8 161.588 244.901Z" fill="#D5D1D1"/>
<path d="M1197.51 618.208C1197.51 620.21 1195.81 621.911 1193.81 621.911C1191.81 621.911 1190.11 620.21 1190.11 618.208C1190.11 616.206 1191.81 614.505 1193.81 614.505C1195.91 614.505 1197.51 616.206 1197.51 618.208Z" fill="#D5D1D1"/>
<path d="M380.57 109.79C380.57 111.792 378.87 113.493 376.87 113.493C374.87 113.493 373.17 111.792 373.17 109.79C373.17 107.789 374.77 106.087 376.87 106.087C378.97 106.087 380.57 107.689 380.57 109.79Z" fill="#D5D1D1"/>
<path d="M358.772 570.269C358.772 572.37 357.072 574.072 354.972 574.072C352.872 574.072 351.172 572.37 351.172 570.269C351.172 568.167 352.872 566.466 354.972 566.466C357.072 566.466 358.772 568.167 358.772 570.269Z" fill="#D5D1D1"/>
<path d="M529.559 320.063C529.559 322.165 527.859 323.866 525.759 323.866C523.659 323.866 521.959 322.165 521.959 320.063C521.959 317.961 523.659 316.26 525.759 316.26C527.859 316.26 529.559 317.961 529.559 320.063Z" fill="#D5D1D1"/>
<path d="M507.6 29.8023C507.6 31.4036 506.3 32.6046 504.8 32.6046C503.3 32.6046 502 31.3035 502 29.8023C502 28.3011 503.3 27 504.8 27C506.3 27 507.6 28.201 507.6 29.8023Z" fill="#D5D1D1"/>
<path d="M889 705.003C889 707.205 887.2 709.007 885 709.007C882.8 709.007 881 707.205 881 705.003C881 702.801 882.8 701 885 701C887.2 701 889 702.801 889 705.003Z" fill="#D5D1D1"/>
<path d="M971.2 602.603C971.2 604.605 969.6 606.206 967.6 606.206C965.6 606.206 964 604.605 964 602.603C964 600.601 965.6 599 967.6 599C969.6 599 971.2 600.601 971.2 602.603Z" fill="#D5D1D1"/>
<path d="M1160.21 452.472C1160.21 454.674 1158.41 456.475 1156.11 456.475C1153.91 456.475 1152.11 454.674 1152.11 452.472C1152.11 450.27 1153.91 448.368 1156.11 448.368C1158.41 448.469 1160.21 450.27 1160.21 452.472Z" fill="#D5D1D1"/>
<path d="M933.4 96.703C933.4 98.7047 931.7 100.406 929.7 100.406C927.7 100.406 926 98.7047 926 96.703C926 94.7014 927.7 93 929.7 93C931.7 93 933.4 94.7014 933.4 96.703Z" fill="#D5D1D1"/>
<path d="M90.4 368.703C90.4 370.705 88.8 372.406 86.7 372.406C84.7 372.406 83 370.705 83 368.703C83 366.701 84.6 365 86.7 365C88.8 365 90.4 366.701 90.4 368.703Z" fill="#D5D1D1"/>
<path d="M686 675.5C686 677.392 684.486 679 682.5 679C680.608 679 679 677.392 679 675.5C679 673.608 680.608 672 682.5 672C684.486 672 686 673.514 686 675.5Z" fill="#D5D1D1"/>
<path d="M750.341 503.114C750.341 505.115 748.741 506.817 746.641 506.817C744.641 506.817 742.941 505.115 742.941 503.114C742.941 501.112 744.641 499.41 746.641 499.41C748.741 499.41 750.341 501.012 750.341 503.114Z" fill="#D5D1D1"/>
<path d="M7.4 554.356C7.4 556.357 5.8 558.059 3.7 558.059C1.7 558.059 0 556.357 0 554.356C0 552.354 1.7 550.653 3.7 550.653C5.7 550.653 7.4 552.254 7.4 554.356Z" fill="#D5D1D1"/>
<path d="M1123.9 701.811L1121.5 697.308L1117 694.906L1121.6 692.504L1123.9 688L1126.1 692.504L1130.8 694.906L1126.2 697.208L1123.9 701.811Z" fill="#D5D1D1"/>
<path d="M322.099 55.0115L319.6 50.4077L315 48.0058L319.7 45.5037L322.099 41L324.299 45.6038L329.099 48.0058L324.399 50.4077L322.099 55.0115Z" fill="#D5D1D1"/>
<path d="M701.044 207.17L698.545 202.566L693.945 200.165L698.645 197.662L701.044 193.159L703.244 197.763L708.044 200.165L703.344 202.566L701.044 207.17Z" fill="#D5D1D1"/>
<path d="M54.3957 140.616L51.8959 135.912L47.1963 133.41L51.9959 130.808L54.3957 126.104L56.7955 130.908L61.6951 133.41L56.7955 135.812L54.3957 140.616Z" fill="#D5D1D1"/>
<path d="M82.5935 687.865L79.1937 682.461L72.9942 678.157L79.2937 674.855L82.5935 668.549L85.6932 674.855L92.1927 678.157L85.7932 681.46L82.5935 687.865Z" fill="#D5D1D1"/>
<path d="M785.938 36.6301L783.538 32.2265L779.138 29.8245L783.638 27.4225L785.938 23.0189L788.138 27.5226L792.737 29.8245L788.238 32.1264L785.938 36.6301Z" fill="#D5D1D1"/>
<path d="M1140.71 283.533L1137.31 277.228L1131.11 273.925L1137.51 270.522L1140.71 264.217L1143.91 270.622L1150.41 273.925L1143.91 277.228L1140.71 283.533Z" fill="#D5D1D1"/>
<path d="M1061.8 540.608L1060.1 537.405L1057 535.804L1060.2 534.103L1061.8 531L1063.4 534.103L1066.7 535.804L1063.4 537.405L1061.8 540.608Z" fill="#D5D1D1"/>
<path d="M918.728 472.989L917.028 469.786L913.928 468.185L917.128 466.483L918.728 463.381L920.328 466.483L923.628 468.185L920.328 469.786L918.728 472.989Z" fill="#D5D1D1"/>
<path d="M279.738 642.663H279.918C280.98 657.704 292.177 657.935 292.177 657.935C292.177 657.935 279.83 658.176 279.83 675.555C279.83 658.176 267.484 657.935 267.484 657.935C267.484 657.935 278.676 657.704 279.738 642.663ZM35.5043 430.354H35.699C36.8533 446.949 49.0106 447.204 49.0106 447.204C49.0106 447.204 35.6044 447.47 35.6044 466.645C35.6044 447.47 22.1982 447.204 22.1982 447.204C22.1982 447.204 34.3506 446.949 35.5043 430.354Z" fill="#E1E4E5"/>
<path d="M1030.62 37.3306L1028.22 33.0271L1023.92 30.7252L1028.32 28.3232L1030.62 24.0197L1032.72 28.4233L1037.22 30.7252L1032.82 32.927L1030.62 37.3306Z" fill="#D5D1D1"/>
<path d="M485.562 237.395L482.162 231.09L475.962 227.787L482.262 224.384L485.562 218.179L488.661 224.485L495.161 227.787L488.761 231.09L485.562 237.395Z" fill="#D5D1D1"/>
</svg>
