<?xml version="1.0" standalone="no"?>
<svg xmlns:xlink="http://www.w3.org/1999/xlink" id="wave" style="transform:rotate(0deg); transition: 0.3s" viewBox="0 0 1440 350" version="1.1" xmlns="http://www.w3.org/2000/svg"><defs><linearGradient id="sw-gradient-0" x1="0" x2="0" y1="1" y2="0"><stop stop-color="rgba(109, 83, 211, 0)" offset="0%"/><stop stop-color="rgba(109, 83, 211, 1)" offset="100%"/></linearGradient></defs><path style="transform:translate(0, 0px); opacity:1" fill="url(#sw-gradient-0)" d="M0,70L40,87.5C80,105,160,140,240,134.2C320,128,400,82,480,81.7C560,82,640,128,720,163.3C800,198,880,222,960,192.5C1040,163,1120,82,1200,40.8C1280,0,1360,0,1440,11.7C1520,23,1600,47,1680,75.8C1760,105,1840,140,1920,175C2000,210,2080,245,2160,262.5C2240,280,2320,280,2400,274.2C2480,268,2560,257,2640,215.8C2720,175,2800,105,2880,81.7C2960,58,3040,82,3120,99.2C3200,117,3280,128,3360,134.2C3440,140,3520,140,3600,169.2C3680,198,3760,257,3840,285.8C3920,315,4000,315,4080,315C4160,315,4240,315,4320,297.5C4400,280,4480,245,4560,227.5C4640,210,4720,210,4800,204.2C4880,198,4960,187,5040,192.5C5120,198,5200,222,5280,221.7C5360,222,5440,198,5520,210C5600,222,5680,268,5720,291.7L5760,315L5760,350L5720,350C5680,350,5600,350,5520,350C5440,350,5360,350,5280,350C5200,350,5120,350,5040,350C4960,350,4880,350,4800,350C4720,350,4640,350,4560,350C4480,350,4400,350,4320,350C4240,350,4160,350,4080,350C4000,350,3920,350,3840,350C3760,350,3680,350,3600,350C3520,350,3440,350,3360,350C3280,350,3200,350,3120,350C3040,350,2960,350,2880,350C2800,350,2720,350,2640,350C2560,350,2480,350,2400,350C2320,350,2240,350,2160,350C2080,350,2000,350,1920,350C1840,350,1760,350,1680,350C1600,350,1520,350,1440,350C1360,350,1280,350,1200,350C1120,350,1040,350,960,350C880,350,800,350,720,350C640,350,560,350,480,350C400,350,320,350,240,350C160,350,80,350,40,350L0,350Z"/></svg>